Coordinates
version=1
nRows=14
nColumns=24
inDegrees=yes

Units are S.I. units (second, meters, Newtons, ...)
Angles are in degrees.

endheader
time	pelvis_tilt	pelvis_list	pelvis_rotation	pelvis_tx	pelvis_ty	pelvis_tz	hip_flexion_r	hip_adduction_r	hip_rotation_r	knee_angle_r	ankle_angle_r	subtalar_angle_r	mtp_angle_r	hip_flexion_l	hip_adduction_l	hip_rotation_l	knee_angle_l	ankle_angle_l	subtalar_angle_l	mtp_angle_l	lumbar_extension	lumbar_bending	lumbar_rotation
      3.63000000	     -9.75704061	     -2.75091331	     13.41116586	     -1.18204846	     -0.05123141	      0.61593453	     38.76569147	     -5.09992153	    -20.28118697	    -15.38710216	     -0.36703043	      3.12962231	      1.88000228	     -5.89648839	     -0.73476834	     -1.75472698	    -15.81038811	     21.05692478	     23.22317026	     -7.22797499	      4.09793257	      1.96939023	    -16.33922512
      3.63500000	     -9.74702988	     -3.14784978	     13.58227834	     -1.17411626	     -0.05260347	      0.61588656	     38.81738060	     -4.77981167	    -20.40230496	    -15.95755696	     -0.98965816	      3.00312464	      2.00571512	     -5.96207687	     -1.37832440	     -1.99919734	    -16.53016469	     21.13380182	     23.77564827	     -6.98616957	      4.27182078	      2.41557229	    -16.51036208
      3.64000000	     -9.71315992	     -3.54956933	     13.64641971	     -1.16610822	     -0.05394963	      0.61601105	     38.89110341	     -4.39170935	    -20.48156736	    -16.62849236	     -1.79708286	      2.68126431	      2.31067070	     -6.03475722	     -2.05292250	     -2.52034604	    -17.30405277	     21.16874508	     24.51522702	     -6.67833358	      4.42263978	      2.88439531	    -16.55899252
      3.64500000	     -9.70222425	     -3.97611831	     13.70138814	     -1.15807399	     -0.05523531	      0.61610730	     38.99642300	     -3.99416008	    -20.48604697	    -17.34755430	     -2.71944254	      2.29368671	      2.62397233	     -6.06266657	     -2.73650596	     -2.92439127	    -18.10142613	     21.10539923	     25.09439727	     -6.33444031	      4.61105627	      3.38538856	    -16.57098313
      3.65000000	     -9.67896769	     -4.41690728	     13.67551398	     -1.14997366	     -0.05645561	      0.61631150	     39.11683413	     -3.54020249	    -20.39446462	    -18.13034792	     -3.71076344	      1.83054527	      2.99513626	     -6.09323959	     -3.44166653	     -3.42115665	    -18.92686032	     20.94352953	     25.68104315	     -5.83743725	      4.78829289	      3.90482319	    -16.47918448
      3.65500000	     -9.70194057	     -4.89874477	     13.74176846	     -1.14190177	     -0.05756696	      0.61632516	     39.28850291	     -3.14138716	    -20.35916004	    -18.98237477	     -4.66641469	      1.37230962	      3.01758903	     -6.02282753	     -4.14956783	     -3.56157565	    -19.80117060	     20.68166154	     25.94060862	     -5.48466607	      5.04012816	      4.46090941	    -16.51056654
      3.66000000	     -9.66876348	     -5.35849494	     13.65441879	     -1.13383820	     -0.05861910	      0.61668685	     39.46581685	     -2.63662591	    -20.17446533	    -19.92841253	     -5.63854791	      0.57107846	      3.05792900	     -5.97347146	     -4.90464260	     -4.19780570	    -20.77978778	     20.31114215	     26.62169839	     -4.72221738	      5.19611834	      5.00631192	    -16.34910575
      3.66500000	     -9.65958730	     -5.85999305	     13.52500602	     -1.12567038	     -0.05956198	      0.61697058	     39.66501770	     -2.08849259	    -19.94405589	    -20.89734895	     -6.49474041	     -0.14654694	      2.99032419	     -5.88899911	     -5.67067367	     -4.72698059	    -21.76262548	     19.73252287	     27.02794809	     -3.69298223	      5.40539912	      5.61002658	    -16.16439260
      3.67000000	     -9.65535252	     -6.35832726	     13.40241849	     -1.11754499	     -0.06039563	      0.61726856	     39.87598386	     -1.54324823	    -19.68734790	    -21.90971653	     -7.21269508	     -0.97063560	      2.75190055	     -5.74375211	     -6.43807932	     -5.18053782	    -22.83620938	     19.01075111	     27.39838818	     -2.58221609	      5.61162673	      6.21031821	    -15.97526006
      3.67500000	     -9.64749033	     -6.86036434	     13.23954831	     -1.10939701	     -0.06112981	      0.61761160	     40.07781367	     -0.95841182	    -19.38971186	    -22.93061099	     -7.78550591	     -1.83703342	      2.43822379	     -5.56324277	     -7.21731596	     -5.66237605	    -23.98164560	     18.10924069	     27.72219884	     -1.23383094	      5.81023778	      6.81817529	    -15.74680005
      3.68000000	     -9.65115357	     -7.33379726	     13.10066711	     -1.10131005	     -0.06175675	      0.61797952	     40.27644817	     -0.39886479	    -19.09566031	    -23.94867910	     -8.22883215	     -2.83880203	      2.11910031	     -5.29768734	     -7.98067358	     -6.09768811	    -25.26011344	     17.06705912	     28.02929969	     -0.04861048	      6.00827868	      7.37969557	    -15.58198598
      3.68500000	     -9.61879240	     -7.81833326	     12.83256741	     -1.09309580	     -0.06225891	      0.61843993	     40.40063011	      0.27622818	    -18.71113003	    -24.90545025	     -8.49105438	     -3.62369372	      1.86543846	     -5.08683496	     -8.76174318	     -6.61857634	    -26.50765567	     15.68379465	     28.21628490	      2.05044235	      6.16268180	      7.99122161	    -15.20866518
      3.69000000	     -9.62369907	     -8.26318203	     12.60938282	     -1.08498883	     -0.06271435	      0.61894274	     40.54228861	      0.89990491	    -18.39608111	    -25.84127166	     -8.64654903	     -4.57584023	      1.70256734	     -4.73754762	     -9.51960640	     -7.06974962	    -27.94398214	     14.23110317	     28.42386105	      3.62605972	      6.33780257	      8.52698696	    -14.90926501
      3.69500000	     -9.59962976	     -8.69225540	     12.34108485	     -1.07684409	     -0.06299072	      0.61946105	     40.58581009	      1.57028009	    -18.02674662	    -26.66416649	     -8.67925871	     -5.38203748	      1.69411589	     -4.39625535	    -10.26824776	     -7.51859567	    -29.39916936	     12.46412762	     28.45271711	      5.60503679	      6.47442144	      9.06564829	    -14.57799537
